<svg xmlns="http://www.w3.org/2000/svg" viewBox="0 0 128 128" width="128" height="128">
  <defs>
    <linearGradient id="coralGradient" x1="20%" y1="10%" x2="80%" y2="90%">
      <stop offset="0%" stop-color="#fdd1c6" />
      <stop offset="100%" stop-color="#f45d48" />
    </linearGradient>
  </defs>
  <path
    fill="url(#coralGradient)"
    d="M64 14c-14.4 0-26 11.6-26 26v11c0 2-1.6 3.6-3.6 3.6H44c-8.8 0-16 7.2-16 16v9.6c0 7.8 5.6 14.4 13 15.8l17 3.2c2 .4 3.4 2 3.4 4v10.8c0 9.6 7.8 17.4 17.4 17.4 9.6 0 17.4-7.8 17.4-17.4V99c0-2 1.4-3.6 3.2-4l16.8-3.4c7.4-1.4 12.8-8 12.8-15.8v-9.4c0-8.8-7.2-16-16-16h-6.4c-2 0-3.6-1.6-3.6-3.6V40C90 25.6 78.4 14 64 14Z"
  />
  <path
    fill="#0b1e31"
    opacity="0.15"
    d="M48 62.4V40c0-8.8 7.2-16 16-16s16 7.2 16 16v24.4c0 3.6 2.4 6.6 6 7.2l6.4 1.2c3 .6 5.2 3.2 5.2 6.2v9.4c0 3-2.2 6.4-5.2 7l-16.8 3.4a12.6 12.6 0 0 0-11.6 12.4v12c0 3.8-2.8 6.6-6.6 6.6s-6.6-2.8-6.6-6.6v-12c0-6-4.6-11-11.6-12.4l-17-3.2c-3-0.6-5.2-4-5.2-7v-9.6c0-3 2.2-5.6 5.2-6.2l6.6-1.2c3.4-0.6 6-3.6 6-6.8Z"
  />
</svg>
