<svg xmlns="http://www.w3.org/2000/svg" viewBox="0 0 128 128" width="128" height="128">
  <path
    fill="none"
    stroke="#f45d48"
    stroke-width="8"
    stroke-linecap="round"
    stroke-linejoin="round"
    d="M48 62.4V40c0-8.8 7.2-16 16-16s16 7.2 16 16v24.4c0 3.6 2.4 6.6 6 7.2l6.4 1.2c3 .6 5.2 3.2 5.2 6.2v9.4c0 3-2.2 6.4-5.2 7l-16.8 3.4a12.6 12.6 0 0 0-11.6 12.4v12c0 3.8-2.8 6.6-6.6 6.6s-6.6-2.8-6.6-6.6v-12c0-6-4.6-11-11.6-12.4l-17-3.2c-3-0.6-5.2-4-5.2-7v-9.6c0-3 2.2-5.6 5.2-6.2l6.6-1.2c3.4-0.6 6-3.6 6-6.8Z"
  />
</svg>
