<svg xmlns="http://www.w3.org/2000/svg" viewBox="0 0 64 64" width="64" height="64">
  <defs>
    <linearGradient id="grad" x1="15%" y1="10%" x2="85%" y2="90%">
      <stop offset="0%" stop-color="#fdd1c6" />
      <stop offset="100%" stop-color="#f45d48" />
    </linearGradient>
  </defs>
  <path d="M32 6c-7.2 0-13 5.8-13 13v5.5c0 1-.8 1.8-1.8 1.8H14c-4.4 0-8 3.6-8 8v4.8c0 3.9 2.8 7.2 6.5 7.9l8.5 1.6c1 .2 1.7 1 1.7 2v5.4c0 4.8 3.9 8.7 8.7 8.7 4.8 0 8.7-3.9 8.7-8.7V50c0-1 .7-1.8 1.6-2l8.4-1.7c3.7-.7 6.4-4 6.4-7.9v-4.7c0-4.4-3.6-8-8-8h-3.2c-1 0-1.8-.8-1.8-1.8V19C45 11.8 39.2 6 32 6Z" fill="url(#grad)"/>
</svg>
